<svg xmlns="http://www.w3.org/2000/svg" width="50.047" height="38.882" viewBox="0 0 50.047 38.882">
  <path id="Path_324" data-name="Path 324" d="M125.039,89.88a1.17,1.17,0,0,1-.216-.019l-48.044-9.8a1.125,1.125,0,0,1-.622-.387.813.813,0,0,1-.068-.848c.053-.108,6.409-12.928,6.583-13.257a.862.862,0,0,1,.458-.429l.048-.023,35.195-14.05a1.69,1.69,0,0,1,.468-.07.947.947,0,0,1,.5.122.962.962,0,0,1,.448.644l6.251,37.079a.882.882,0,0,1-.31.8A1.084,1.084,0,0,1,125.039,89.88ZM98.95,75.537h0l-17.523,3.65,38.05,7.761L98.95,75.537Zm13.082-2.731-10.338,2.158L121.743,86.11Zm6.454-16.674h0l-4.9,15.521,9.779,13.4-4.876-28.917ZM84.047,67.227h0l-5.312,10.7L96.568,74.21,84.047,67.227ZM117.24,53.468,85.71,66.056l13.6,7.583,12.371-2.583Z" transform="translate(-76 -50.998)" fill="#a3bbc8"/>
</svg>
