<svg xmlns="http://www.w3.org/2000/svg" width="17.859" height="15.523" viewBox="0 0 17.859 15.523">
  <path id="Shape_55" data-name="Shape 55" d="M1648.912,86.244a.705.705,0,0,0,.279-.056c.353-.15,8.65-3.75,8.65-10.76a28.079,28.079,0,0,1-13.042-4.707,4.818,4.818,0,0,0-4.817,4.684c0,7.034,8.3,10.634,8.649,10.784A.709.709,0,0,0,1648.912,86.244Zm4.112-14.138a3.424,3.424,0,0,1,3.408,3.346c0,5.407-6.125,8.662-7.52,9.334-1.4-.672-7.52-3.93-7.52-9.358a3.409,3.409,0,0,1,6.816.024.7.7,0,0,0,.7.669h0a.7.7,0,0,0,.7-.669A3.424,3.424,0,0,1,1653.025,72.106Z" transform="translate(-1639.983 -70.721)" fill="#243f4d"/>
</svg>
